<svg version="1.1" id="Layer_1" xmlns="http://www.w3.org/2000/svg" xmlns:xlink="http://www.w3.org/1999/xlink" x="0px" y="0px" width="100%" viewBox="0 0 1019 1019" enable-background="new 0 0 1019 1019" xml:space="preserve">

<path fill="#32AFFB" opacity="1.000000" stroke="none" d="
M499.000000,719.981689 
	C441.761993,719.981567 385.023987,719.981567 328.285950,719.981567 
	C328.097626,720.363525 327.909271,720.745483 327.720917,721.127502 
	C339.678711,733.110840 351.698364,745.033325 363.572998,757.098511 
	C371.742401,765.399231 379.787506,773.826111 387.743927,782.331482 
	C393.806702,788.812500 393.691895,798.470581 387.501373,804.923950 
	C381.528778,811.150146 375.439301,817.271179 369.231537,823.262634 
	C364.607697,827.725403 356.168304,827.989502 351.361237,823.711731 
	C347.049347,819.874573 343.127533,815.598633 339.039551,811.510315 
	C303.424683,775.892700 268.012665,740.068237 232.049530,704.805847 
	C223.519623,696.442200 224.496262,686.988281 231.820694,679.757812 
	C247.045685,664.728333 262.410797,649.839966 277.558624,634.733398 
	C286.760742,625.556396 295.514954,615.929504 304.736481,606.772583 
	C319.583801,592.029358 334.643280,577.499634 349.629456,562.896423 
	C355.063477,557.601318 364.579956,557.451660 370.395874,563.084595 
	C376.837158,569.323303 383.013672,575.865479 388.935608,582.600769 
	C393.740234,588.065308 393.167328,597.041809 388.143677,602.297729 
	C379.285278,611.565491 370.423798,620.831543 361.463379,630.000366 
	C350.511993,641.206360 339.457397,652.311523 327.886383,664.028442 
	C329.997040,664.028442 331.417114,664.028503 332.837219,664.028503 
	C396.501190,664.028503 460.165253,664.064575 523.828979,663.945374 
	C527.967834,663.937622 532.104431,662.737061 537.099731,661.957520 
	C537.094910,661.955505 538.366272,663.027466 539.418884,662.844055 
	C558.056213,659.596802 575.074280,652.718018 589.470825,640.093567 
	C607.045044,624.682495 618.335938,605.680298 622.091187,582.492859 
	C623.096802,576.283508 623.753967,569.967163 623.924377,563.682434 
	C624.455078,544.107544 624.871338,524.525269 624.972107,504.944061 
	C625.134827,473.297607 625.010803,441.649719 625.007996,410.002441 
	C625.006958,397.951294 625.187134,385.896484 624.941284,373.850342 
	C624.781311,366.015106 624.001465,358.192535 623.439880,349.438599 
	C642.211243,355.209747 660.878357,356.533142 679.678650,349.184174 
	C679.939880,349.566925 680.788391,350.229584 680.784058,350.886627 
	C680.565125,384.154694 680.221924,417.421906 680.010071,450.690002 
	C679.895935,468.609131 679.945862,486.529785 680.011536,504.449402 
	C680.054504,516.173767 680.377014,527.897705 680.360291,539.621521 
	C680.338623,554.807861 681.344971,570.130188 679.695435,585.150879 
	C676.532654,613.951599 665.593079,639.817322 647.110840,662.524780 
	C632.580139,680.377319 614.929321,694.140564 594.680115,704.544861 
	C586.673279,708.658813 577.689941,710.854431 569.210083,714.078369 
	C567.097412,714.881592 565.213440,716.286316 564.075134,716.931946 
	C553.103027,717.988770 542.817688,719.390991 532.489868,719.861755 
	C521.514221,720.362000 510.498322,719.979126 499.000000,719.981689 
z" data-index="1"></path>
<path fill="#31AFFA" opacity="1.000000" stroke="none" d="
M398.000000,303.970581 
	C352.674957,303.959686 307.849884,303.952820 263.024841,303.941864 
	C250.859512,303.938873 244.584473,298.453094 244.072113,286.591888 
	C243.679764,277.509186 243.828751,268.388855 244.104645,259.296417 
	C244.295868,252.994781 251.494720,247.045456 258.399933,247.043060 
	C302.392303,247.027771 346.384644,247.037643 390.377014,247.037659 
	C450.699921,247.037674 511.022858,247.036270 571.345764,247.035492 
	C573.155823,247.035477 574.965881,247.035477 576.473694,247.035477 
	C574.979126,256.790863 572.505310,266.214081 572.379944,275.668427 
	C572.257385,284.912964 574.530090,294.189270 575.820068,303.973083 
	C516.724426,303.973083 457.612213,303.973083 398.000000,303.970581 
z" data-index="2"></path>
<path fill="#31AFFB" opacity="1.000000" stroke="none" d="
M708.963623,253.918152 
	C710.749695,259.011993 711.905334,263.744202 712.107727,268.877136 
	C712.460999,277.837006 712.284851,286.642578 709.012573,295.103699 
	C701.191406,315.326599 687.006653,327.995850 665.641357,333.166229 
	C652.461426,336.355774 639.919434,334.782349 627.997437,329.788727 
	C614.816589,324.267914 605.167114,314.451874 598.640259,301.402344 
	C593.432129,290.989288 592.136536,280.071991 593.154602,268.929749 
	C594.263977,256.788025 599.058105,245.808365 607.065735,236.473328 
	C619.102844,222.440964 634.527405,215.023163 652.945740,215.156433 
	C675.517700,215.319778 692.819458,225.428558 704.388794,244.967972 
	C706.033447,247.745636 707.437256,250.665863 708.963623,253.918152 
z" data-index="3"></path>
</svg>